# xmcd CD database file
#
# Track frame offsets:
#	150
#	26540
#	51027
#
# Disc length: 976 seconds
#
# Revision: 0
# Processed by: cddbd v1.5PL3 Copyright (c) Steve Scherf et al.
# Submitted via: CDex 1.51
#
DISCID=1b03ce03
DTITLE=聖飢魔II - 赤い玉の伝説 [リマスターバージョン]
DYEAR=1996
DGENRE=Rock
TTITLE0=赤い玉の伝説 [リマスターバージョン]
TTITLE1=CYBER MEGA MIX B. D. 3
TTITLE2=君が代は千代に八千代の物語 [LIVE TAKE]
EXTD=YEAR: 1996
EXTT0=
EXTT1=
EXTT2=
PLAYORDER=
